#!OML:ASF H:\MichaelJackson\Top Level 1\Subject 1\Session 1\male.ASF
:FULLY-SPECIFIED
:DEGREES
476
root 4.26427 15.3083 26.683 9.04717 1.71229 -7.07195
lowerback 8.50075 3.20043 3.02479
upperback 3.26379 4.52446 2.06544
thorax -1.30751 2.26002 0.013084
lowerneck -6.03129 -2.99045 2.37104
upperneck -1.93791 -4.14131 1.71947
head 0.381347 -2.06924 0.0516758
rclavicle 2.73329e-015 9.93923e-017
rhumerus -46.9755 12.7946 -101.545
rradius 96.7482
rwrist 4.1899
rhand -35.7504 -19.5852
rfingers 7.12502
rthumb -8.86899 -409.379
lclavicle 2.73329e-015 9.93923e-017
lhumerus -54.7231 -24.1134 105.631
lradius 101.549
lwrist 33.8516
lhand -20.0638 0.559535
lfingers 7.12502
lthumb 6.27826 30.4465
rfemur -5.78939 11.5767 6.57727
rtibia 37.5705
rfoot -11.5211 -25.3817
rtoes -40.8741
lfemur -51.022 15.2086 -4.40919
ltibia 56.4243
lfoot -8.91869 7.89331
ltoes -9.85354
477
root 4.37154 15.3008 26.765 9.08015 2.31278 -6.84612
lowerback 8.40385 3.21393 2.82034
upperback 3.23816 4.52264 2.0048
thorax -1.29194 2.25883 0.0690503
lowerneck -6.11983 -3.28256 2.19044
upperneck -2.12658 -4.51804 2.01324
head 0.347356 -2.25633 0.162743
rclavicle -4.98204e-014 -1.68967e-015
rhumerus -47.4016 13.0685 -101.602
rradius 97.3391
rwrist 4.57884
rhand -35.462 -19.4408
rfingers 7.12502
rthumb -8.59064 -409.246
lclavicle -4.98204e-014 -1.68967e-015
lhumerus -55.3738 -25.0932 106.455
lradius 102.166
lwrist 33.5429
lhand -19.5483 0.442225
lfingers 7.12502
lthumb 6.77592 30.3138
rfemur -5.77155 11.7094 6.44355
rtibia 38.4054
rfoot -10.0063 -26.1117
rtoes -40.6462
lfemur -51.4336 15.074 -5.25659
ltibia 57.1882
lfoot -9.7172 7.70565
ltoes -9.54574
478
root 4.47785 15.2939 26.8447 9.1169 3.05091 -6.56092
lowerback 8.31551 3.18937 2.62138
upperback 3.20828 4.47139 1.92652
thorax -1.28432 2.23303 0.107598
lowerneck -6.19611 -3.58074 2.00109
upperneck -2.31239 -4.90113 2.3035
head 0.314531 -2.44663 0.273924
rclavicle -1.78409e-014 -8.54774e-015
rhumerus -47.8032 13.1875 -101.62
rradius 97.9326
rwrist 4.75259
rhand -35.0393 -19.4669
rfingers 7.12502
rthumb -8.18268 -409.288
lclavicle -1.78409e-014 -8.54774e-015
lhumerus -55.9729 -26.0307 107.238
lradius 102.755
lwrist 33.313
lhand -19.0086 0.363573
lfingers 7.12502
lthumb 7.29687 30.2178
rfemur -5.84442 11.6975 6.29403
rtibia 39.4696
rfoot -8.47959 -26.8348
rtoes -40.2295
lfemur -51.8159 14.7315 -6.12148
ltibia 57.8544
lfoot -10.4879 7.54217
ltoes -9.19637
479
root 4.58289 15.2877 26.9217 9.1568 3.88689 -6.25167
lowerback 8.24733 3.1374 2.44625
upperback 3.1761 4.38669 1.84317
thorax -1.28817 2.19057 0.129411
lowerneck -6.26925 -3.88341 1.79028
upperneck -2.49219 -5.28812 2.59435
head 0.285884 -2.63863 0.388467
rclavicle -3.95581e-014 -2.5345e-014
rhumerus -48.1774 13.1833 -101.604
rradius 98.5274
rwrist 4.73376
rhand -34.5151 -19.6246
rfingers 7.12502
rthumb -7.67675 -409.465
lclavicle -3.95581e-014 -2.5345e-014
lhumerus -56.5168 -26.9027 107.981
lradius 103.322
lwrist 33.1119
lhand -18.4255 0.373803
lfingers 7.12502
lthumb 7.85968 30.2077
rfemur -6.04413 11.5707 6.1577
rtibia 40.7914
rfoot -6.95833 -27.535
rtoes -39.5676
lfemur -52.1567 14.239 -6.96314
ltibia 58.4298
lfoot -11.235 7.37835
ltoes -8.80715
480
root 4.68629 15.2821 26.9951 9.19325 4.77485 -5.94491
lowerback 8.21648 3.07087 2.30526
upperback 3.14316 4.28677 1.76179
thorax -1.31088 2.14046 0.133423
lowerneck -6.34351 -4.18778 1.55866
upperneck -2.66426 -5.67555 2.88196
head 0.262606 -2.83054 0.505196
rclavicle -2.03754e-014 7.45443e-015
rhumerus -48.5296 13.0804 -101.557
rradius 99.1312
rwrist 4.57226
rhand -33.9003 -19.9119
rfingers 7.12502
rthumb -7.08333 -409.773
lclavicle -2.03754e-014 7.45443e-015
lhumerus -57.0099 -27.6939 108.682
lradius 103.871
lwrist 32.887
lhand -17.8143 0.476807
lfingers 7.12502
lthumb 8.44957 30.2878
rfemur -6.3975 11.3616 6.05168
rtibia 42.3831
rfoot -5.46595 -28.1885
rtoes -38.5709
lfemur -52.443 13.6587 -7.75556
ltibia 58.9245
lfoot -11.9571 7.19585
ltoes -8.37481
481
root 4.78756 15.2773 27.0646 9.21851 5.66996 -5.66641
lowerback 8.23076 3.00082 2.20748
upperback 3.10978 4.18707 1.68712
thorax -1.35604 2.09038 0.117775
lowerneck -6.40335 -4.49227 1.31433
upperneck -2.83586 -6.06133 3.16108
head 0.239477 -3.02166 0.62183
rclavicle -4.73604e-014 1.33186e-014
rhumerus -48.8682 12.9125 -101.492
rradius 99.7412
rwrist 4.36648
rhand -33.2327 -20.3132
rfingers 7.12502
rthumb -6.43889 -410.195
lclavicle -4.73604e-014 1.33186e-014
lhumerus -57.4542 -28.3883 109.329
lradius 104.395
lwrist 32.57
lhand -17.087 0.587327
lfingers 7.12502
lthumb 9.15142 30.3688
rfemur -6.9227 11.1007 5.99347
rtibia 44.2437
rfoot -4.05081 -28.7757
rtoes -37.0748
lfemur -52.6675 13.0575 -8.4798
ltibia 59.3513
lfoot -12.6544 6.97856
ltoes -7.89317
482
root 4.88605 15.2739 27.1305 9.23319 6.49679 -5.42165
lowerback 8.2836 2.94784 2.1326
upperback 3.07851 4.11272 1.61472
thorax -1.41842 2.05281 0.0874928
lowerneck -6.44701 -4.79132 1.06383
upperneck -3.00989 -6.43849 3.43161
head 0.214939 -3.20861 0.737637
rclavicle -4.24405e-014 -1.59028e-014
rhumerus -49.1999 12.7178 -101.428
rradius 100.338
rwrist 4.26745
rhand -32.5371 -20.836
rfingers 7.12502
rthumb -5.76734 -410.737
lclavicle -4.24405e-014 -1.59028e-014
lhumerus -57.868 -28.9659 109.91
lradius 104.91
lwrist 32.0846
lhand -16.2161 0.714006
lfingers 7.12502
lthumb 9.99163 30.4568
rfemur -7.64726 10.8362 5.96984
rtibia 46.3539
rfoot -2.74201 -29.2749
rtoes -34.8516
lfemur -52.8204 12.5241 -9.14499
ltibia 59.7213
lfoot -13.3283 6.72442
ltoes -7.36219
483
root 4.98148 15.2722 27.1935 9.2496 7.20283 -5.20113
lowerback 8.35042 2.92429 2.05163
upperback 3.05047 4.07681 1.53884
thorax -1.48487 2.03431 0.0529914
lowerneck -6.4731 -5.07816 0.818995
upperneck -3.18369 -6.79904 3.68341
head 0.188488 -3.38756 0.847887
rclavicle -4.94477e-014 -1.71949e-014
rhumerus -49.5255 12.5339 -101.372
rradius 100.899
rwrist 4.36985
rhand -31.8433 -21.4273
rfingers 7.12502
rthumb -5.09743 -411.346
lclavicle -4.94477e-014 -1.71949e-014
lhumerus -58.2614 -29.4209 110.419
lradius 105.422
lwrist 31.406
lhand -15.2121 0.883684
lfingers 7.12502
lthumb 10.9602 30.5776
rfemur -8.59412 10.5929 5.95294
rtibia 48.6799
rfoot -1.56828 -29.6626
rtoes -31.5248
lfemur -52.9111 12.1168 -9.77861
ltibia 60.0435
lfoot -13.9752 6.44366
ltoes -6.80763
484
root 5.07334 15.2726 27.2537 9.26128 7.79565 -4.98691
lowerback 8.4332 2.92352 1.94915
upperback 3.03048 4.06898 1.45139
thorax -1.5521 2.02975 0.0154191
lowerneck -6.48563 -5.34779 0.592886
upperneck -3.35806 -7.13737 3.90949
head 0.159325 -3.55588 0.948396
rclavicle 8.44835e-016 -1.19271e-014
rhumerus -49.8404 12.3879 -101.343
rradius 101.409
rwrist 4.72644
rhand -31.1634 -22.0634
rfingers 7.12502
rthumb -4.44093 -411.997
lclavicle 8.44835e-016 -1.19271e-014
lhumerus -58.6415 -29.7598 110.85
lradius 105.936
lwrist 30.5404
lhand -14.0795 1.06093
lfingers 7.12502
lthumb 12.0524 30.6939
rfemur -9.73549 10.3673 5.93148
rtibia 51.1744
rfoot -0.541943 -29.9361
rtoes -26.5878
lfemur -52.9397 11.835 -10.4064
ltibia 60.3194
lfoot -14.5911 6.1393
ltoes -6.2349
485
root 5.1615 15.2751 27.3113 9.27191 8.30963 -4.75512
lowerback 8.52805 2.93076 1.81313
upperback 3.01735 4.06833 1.34456
thorax -1.61972 2.02876 -0.0245362
lowerneck -6.47752 -5.59872 0.389353
upperneck -3.53695 -7.45167 4.1124
head 0.124581 -3.71285 1.03964
rclavicle 1.14102e-013 -4.96962e-015
rhumerus -50.1393 12.3051 -101.351
rradius 101.849
rwrist 5.32273
rhand -30.5361 -22.69
rfingers 7.12502
rthumb -3.83515 -412.635
lclavicle 1.14102e-013 -4.96962e-015
lhumerus -59.0164 -30 111.2
lradius 106.454
lwrist 29.5465
lhand -12.8807 1.2464
lfingers 7.12502
lthumb 13.2082 30.808
rfemur -11.0422 10.1324 5.89044
rtibia 53.7872
rfoot 0.381675 -30.0811
rtoes -19.5447
lfemur -52.9195 11.6459 -11.0572
ltibia 60.547
lfoot -15.1705 5.81478
ltoes -5.65826
486
root 5.24615 15.2798 27.3671 9.28241 8.79738 -4.47773
lowerback 8.62465 2.9262 1.63666
upperback 3.01546 4.04738 1.21182
thorax -1.67785 2.01781 -0.0663825
lowerneck -6.45674 -5.82798 0.200956
upperneck -3.71485 -7.73785 4.30147
head 0.0875148 -3.85612 1.12548
rclavicle 1.43125e-014 2.98177e-015
rhumerus -50.4145 12.3039 -101.404
rradius 102.216
rwrist 6.08635
rhand -29.992 -23.2739
rfingers 7.12502
rthumb -3.30975 -413.228
lclavicle 1.43125e-014 2.98177e-015
lhumerus -59.3927 -30.1607 111.481
lradius 106.982
lwrist 28.5035
lhand -11.6766 1.42291
lfingers 7.12502
lthumb 14.3686 30.9056
rfemur -12.4673 9.85167 5.81558
rtibia 56.4666
rfoot 1.26651 -30.0711
rtoes -10.2341
lfemur -52.8562 11.4961 -11.7588
ltibia 60.7216
lfoot -15.7079 5.47526
ltoes -5.10183
487
root 5.32698 15.2864 27.4213 9.31033 9.29081 -4.14333
lowerback 8.70719 2.90215 1.41339
upperback 3.02166 3.99512 1.05291
thorax -1.7215 1.99147 -0.104888
lowerneck -6.42949 -6.03713 0.0267475
upperneck -3.89004 -7.99811 4.47932
head 0.0495857 -3.98668 1.20664
rclavicle -3.60297e-014 4.47266e-015
rhumerus -50.6555 12.3934 -101.503
rradius 102.515
rwrist 6.89088
rhand -29.5667 -23.7843
rfingers 7.12502
rthumb -2.899 -413.744
lclavicle -3.60297e-014 4.47266e-015
lhumerus -59.7647 -30.2693 111.704
lradius 107.515
lwrist 27.5119
lhand -10.5249 1.61109
lfingers 7.12502
lthumb 15.4781 31.0115
rfemur -13.9989 9.49564 5.70198
rtibia 59.1716
rfoot 2.20962 -29.8694
rtoes 0.657691
lfemur -52.7755 11.3556 -12.5212
ltibia 60.8415
lfoot -16.2007 5.11445
ltoes -4.55471
488
root 5.40432 15.2942 27.4735 9.35377 9.81062 -3.75552
lowerback 8.7825 2.85492 1.1559
upperback 3.03528 3.90799 0.872074
thorax -1.75443 1.94795 -0.142608
lowerneck -6.39862 -6.22925 -0.138922
upperneck -4.06023 -8.23632 4.64972
head 0.0122364 -4.10632 1.28494
rclavicle -8.02593e-015 2.39536e-014
rhumerus -50.8603 12.5756 -101.642
rradius 102.76
rwrist 7.61833
rhand -29.2837 -24.2101
rfingers 7.12502
rthumb -2.62567 -414.174
lclavicle -8.02593e-015 2.39536e-014
lhumerus -60.1296 -30.3517 111.89
lradius 108.046
lwrist 26.6688
lhand -9.47198 1.82968
lfingers 7.12502
lthumb 16.4921 31.1487
rfemur -15.6102 9.04804 5.55797
rtibia 61.8676
rfoot 3.26248 -29.4307
rtoes 11.5041
lfemur -52.6809 11.1965 -13.3341
ltibia 60.9095
lfoot -16.6457 4.73208
ltoes -4.00998
489
root 5.47834 15.3025 27.5239 9.41536 10.3632 -3.33027
lowerback 8.84813 2.78434 0.881227
upperback 3.05376 3.78752 0.676921
thorax -1.77717 1.888 -0.1812
lowerneck -6.3679 -6.40727 -0.306295
upperneck -4.22026 -8.45593 4.82051
head -0.0215635 -4.21647 1.36416
rclavicle -3.75455e-014 2.57426e-014
rhumerus -51.0281 12.8527 -101.815
rradius 102.957
rwrist 8.20144
rhand -29.1433 -24.5333
rfingers 7.12502
rthumb -2.49007 -414.499
lclavicle -3.75455e-014 2.57426e-014
lhumerus -60.4824 -30.4207 112.053
lradius 108.564
lwrist 26.0427
lhand -8.52188 2.06552
lfingers 7.12502
lthumb 17.4066 31.3061
rfemur -17.2852 8.49805 5.40704
rtibia 64.531
rfoot 4.46332 -28.7039
rtoes 20.3857
lfemur -52.5808 11.0081 -14.1729
ltibia 60.9334
lfoot -17.049 4.323
ltoes -3.44125
490
root 5.54945 15.3108 27.5726 9.48314 10.9519 -2.88351
lowerback 8.91411 2.69347 0.607132
upperback 3.07876 3.63969 0.475062
thorax -1.79271 1.81458 -0.223743
lowerneck -6.3504 -6.57422 -0.482665
upperneck -4.35745 -8.66107 4.99649
head -0.0451392 -4.31869 1.4461
rclavicle 4.63665e-014 -1.11319e-014
rhumerus -51.1577 13.2059 -102.006
rradius 103.11
rwrist 8.60432
rhand -29.1581 -24.7289
rfingers 7.12502
rthumb -2.50438 -414.694
lclavicle 4.63665e-014 -1.11319e-014
lhumerus -60.8187 -30.4938 112.209
lradius 109.055
lwrist 25.676
lhand -7.70775 2.39629
lfingers 7.12502
lthumb 18.19 31.5658
rfemur -18.992 7.84314 5.27478
rtibia 67.1421
rfoot 5.72911 -27.6556
rtoes 26.4827
lfemur -52.4651 10.7782 -15.0108
ltibia 60.9244
lfoot -17.4195 3.88868
ltoes -2.83357
